/* XPM */
static char *result[] = {
/* columns rows colors chars-per-pixel */
"8 8 20 1 ",
"  c #2B2315",
". c #AD8854",
"X c #AD8955",
"o c #AE8955",
"O c #AE8A55",
"+ c #AD8957",
"@ c #AE8956",
"# c #AD8A59",
"$ c #AE8A58",
"% c #AD8A5A",
"& c #AD8B5B",
"* c #AE8B5B",
"= c #AF8C58",
"- c #AE8C5B",
"; c #AF8D5C",
": c #B08D5A",
"> c #B08D5B",
", c #B18E5C",
"< c #B6935F",
"1 c #B89560",
/* pixels */
"        ",
" +. #;1 ",
" *    < ",
" - ,: > ",
"   @X   ",
" o    & ",
" O=$ %& ",
"        "
};
